<?xml version="1.0" standalone="yes"?>

<svg version="1.1" viewBox="0.0 0.0 960.0 720.0" fill="none" stroke="none" stroke-linecap="square" stroke-miterlimit="10" xmlns="http://www.w3.org/2000/svg" xmlns:xlink="http://www.w3.org/1999/xlink"><clipPath id="p.0"><path d="m0 0l960.0 0l0 720.0l-960.0 0l0 -720.0z" clip-rule="nonzero"></path></clipPath><g clip-path="url(#p.0)"><path fill="#000000" fill-opacity="0.0" d="m0 0l960.0 0l0 720.0l-960.0 0z" fill-rule="nonzero"></path><path fill="#000000" d="m348.34647 253.81364l305.6063 0l0 192.9449l-305.6063 0z" fill-rule="nonzero"></path><path fill="#ffffff" d="m413.40897 411.31866l-4.625 0q-12.0625 0 -17.9375 -5.65625q-5.875 -5.65625 -5.875 -17.15625l0 -21.5q0 -3.0625 -0.6875 -5.46875q-0.6875 -2.40625 -2.40625 -4.0625q-1.71875 -1.65625 -4.5625 -2.53125q-2.84375 -0.875 -7.15625 -0.875l-2.6875 0l0 -8.6875l2.6875 0q4.5625 0 7.4375 -0.75q2.875 -0.75 4.5 -2.28125q1.625 -1.53125 2.25 -3.90625q0.625 -2.375 0.625 -5.625l0 -14.8125q0 -5.25 1.25 -9.46875q1.25 -4.21875 4.09375 -7.1875q2.84375 -2.96875 7.375 -4.5625q4.53125 -1.59375 11.09375 -1.59375l4.625 0l0 8.75l-3.6875 0q-14.5 0 -14.5 14.0625l0 14.5625q0 15.25 -13.1875 17.1875q13.3125 1.3125 13.3125 17.125l0 21.375q0 14.3125 14.375 14.3125l3.6875 0l0 8.75z" fill-rule="nonzero"></path><path fill="#ffff00" d="m459.09647 306.31866l-18.5625 0l0 -8.9375l29.5625 0l0 79.25l18.6875 0l0 9.0625l-50.3125 0l0 -9.0625l20.625 0l0 -70.3125zm101.18747 76.3125q-9.8125 4.0625 -20.5625 4.0625q-17.3125 0 -26.59375 -10.34375q-9.2812195 -10.34375 -9.2812195 -30.59375q0 -9.8125 2.5625 -17.75q2.5625 -7.9375 7.3124695 -13.46875q4.75 -5.53125 11.5 -8.53125q6.75 -3.0 15.125 -3.0q5.6875 0 10.5625 0.96875q4.875 0.96875 9.375 2.96875l0 10.9375q-4.4375 -2.4375 -9.1875 -3.71875q-4.75 -1.28125 -10.375 -1.28125q-5.75 0 -10.40625 2.15625q-4.65625 2.15625 -7.90625 6.25q-3.25 4.09375 -5.0 10.0q-1.75 5.90625 -1.75 13.46875q0 15.875 6.4375 23.9375q6.4375 8.0625 18.875 8.0625q5.25 0 10.0625 -1.21875q4.8125 -1.21875 9.25 -3.40625l0 10.5z" fill-rule="nonzero"></path><path fill="#ffffff" d="m582.78394 295.19366l4.625 0q12.0625 0 17.9375 5.65625q5.875 5.65625 5.875 17.15625l0 14.4375q0 3.0625 0.6875 5.46875q0.6875 2.40625 2.40625 4.0625q1.71875 1.65625 4.59375 2.53125q2.875 0.875 7.1875 0.875l2.6875 0l0 8.6875l-2.6875 0q-4.5625 0 -7.46875 0.75q-2.90625 0.75 -4.53125 2.28125q-1.625 1.53125 -2.25 3.90625q-0.625 2.375 -0.625 5.625l0 21.875q0 5.25 -1.25 9.46875q-1.25 4.21875 -4.0625 7.1875q-2.8125 2.96875 -7.375 4.5625q-4.5625 1.59375 -11.125 1.59375l-4.625 0l0 -8.75l3.75 0q14.4375 0 14.4375 -14.0625l0 -21.625q0 -15.25 13.1875 -17.125q-13.3125 -1.4375 -13.3125 -17.1875l0 -14.3125q0 -14.3125 -14.3125 -14.3125l-3.75 0l0 -8.75z" fill-rule="nonzero"></path></g></svg>

